<svg
            width="19"
            height="5"
            viewBox="0 0 19 5"
            fill="none"
            xmlns="http://www.w3.org/2000/svg"
          >
	<path
    fill-rule="evenodd"
    clip-rule="evenodd"
    d="M2.73181 4.77847C3.83638 4.77847 4.73181 3.88304 4.73181 2.77847C4.73181 1.6739 3.83638 0.778473 2.73181 0.778473C1.62724 0.778473 0.731812 1.6739 0.731812 2.77847C0.731812 3.88304 1.62724 4.77847 2.73181 4.77847Z"
    fill="#002844" />
	<path
    fill-rule="evenodd"
    clip-rule="evenodd"
    d="M9.73181 4.77847C10.8364 4.77847 11.7318 3.88304 11.7318 2.77847C11.7318 1.6739 10.8364 0.778473 9.73181 0.778473C8.62724 0.778473 7.73181 1.6739 7.73181 2.77847C7.73181 3.88304 8.62724 4.77847 9.73181 4.77847Z"
    fill="#002844" />
	<path
    fill-rule="evenodd"
    clip-rule="evenodd"
    d="M16.7318 4.77847C17.8364 4.77847 18.7318 3.88304 18.7318 2.77847C18.7318 1.6739 17.8364 0.778473 16.7318 0.778473C15.6272 0.778473 14.7318 1.6739 14.7318 2.77847C14.7318 3.88304 15.6272 4.77847 16.7318 4.77847Z"
    fill="#002844" />
</svg>